<svg xmlns="http://www.w3.org/2000/svg" viewBox="0 0 2048 991" preserveAspectRatio="xMidYMid" width="2048" height="991" xmlns:xlink="http://www.w3.org/1999/xlink" style="shape-rendering:auto;display:block;background-position-x:0%;background-position-y:0%;background-size:auto;background-origin:padding-box;background-clip:border-box;background:scroll rgb(255, 255, 255) none  repeat;width:2048px;height:991px;;animation:none"><g><linearGradient y2="0" y1="0" x2="1" x1="0" id="lg-o578w6yh81n"><stop offset="0" stop-color="#ff00ff"></stop>

  
<stop offset="1" stop-color="#00ffff"></stop></linearGradient>
<path opacity="0.4" fill="url(#lg-o578w6yh81n)" d="M 0 0 L 0 670.59 Q 204.8 637.6 409.6 617.6 T 819.2 472.5 T 1228.8 427.31 T 1638.4 495.27 T 2048 392.7 L 2048 0 Z" style="fill:url('#lg-o578w6yh81n');opacity:0.4;;animation:none"></path>
<path opacity="0.4" fill="url(#lg-o578w6yh81n)" d="M 0 0 L 0 619.565 Q 204.8 592.245 409.6 567.422 T 819.2 495.492 T 1228.8 404.946 T 1638.4 323.689 T 2048 324.222 L 2048 0 Z" style="fill:url('#lg-o578w6yh81n');opacity:0.4;;animation:none"></path>
<path opacity="0.4" fill="url(#lg-o578w6yh81n)" d="M 0 0 L 0 635.279 Q 204.8 689.106 409.6 664.886 T 819.2 443.772 T 1228.8 483.863 T 1638.4 375.199 T 2048 305.935 L 2048 0 Z" style="fill:url('#lg-o578w6yh81n');opacity:0.4;;animation:none"></path>
<path opacity="0.4" fill="url(#lg-o578w6yh81n)" d="M 0 0 L 0 677.916 Q 204.8 578.735 409.6 554.014 T 819.2 578.808 T 1228.8 451.093 T 1638.4 491.326 T 2048 386.918 L 2048 0 Z" style="fill:url('#lg-o578w6yh81n');opacity:0.4;;animation:none"></path>
<path opacity="0.4" fill="url(#lg-o578w6yh81n)" d="M 0 0 L 0 709.489 Q 204.8 600.826 409.6 579.481 T 819.2 488.077 T 1228.8 501.473 T 1638.4 315.93 T 2048 248.326 L 2048 0 Z" style="fill:url('#lg-o578w6yh81n');opacity:0.4;;animation:none"></path>
<g></g></g><!-- [ldio] generated by https://loading.io --></svg>